<?xml version="1.0" standalone="no"?><!DOCTYPE svg PUBLIC "-//W3C//DTD SVG 1.1//EN" "http://www.w3.org/Graphics/SVG/1.1/DTD/svg11.dtd"><svg t="1530669227516" class="icon" style="" viewBox="0 0 1024 1024" version="1.1" xmlns="http://www.w3.org/2000/svg" p-id="1979" xmlns:xlink="http://www.w3.org/1999/xlink" width="28" height="28"><defs><style type="text/css">@font-face { font-family: uc-nexus-iconfont; src: url("chrome-extension://pogijhnlcfmcppgimcaccdkmbedjkmhi/res/font_9qmmi8b8jsxxbt9.woff") format("woff"), url("chrome-extension://pogijhnlcfmcppgimcaccdkmbedjkmhi/res/font_9qmmi8b8jsxxbt9.ttf") format("truetype"); }
</style></defs><path d="M188.416 337.92c114.688-10.24 223.232-14.336 329.728-14.336 104.448 0 210.944 4.096 315.392 14.336 38.912 4.096 69.632 34.816 73.728 73.728 8.192 75.776 12.288 149.504 12.288 223.232 0 71.68-4.096 145.408-12.288 217.088-4.096 38.912-34.816 69.632-73.728 71.68-98.304 8.192-202.752 14.336-313.344 14.336s-223.232-4.096-333.824-14.336c-38.912-4.096-69.632-32.768-73.728-71.68C106.496 778.24 102.4 704.512 102.4 632.832c0-73.728 4.096-147.456 12.288-221.184 4.096-40.96 34.816-69.632 73.728-73.728z" fill="#B3D7FF" p-id="1980"></path><path d="M522.24 937.984c-110.592 0-223.232-4.096-333.824-14.336-38.912-4.096-69.632-34.816-73.728-71.68C106.496 778.24 102.4 704.512 102.4 632.832c0-73.728 4.096-147.456 12.288-221.184 4.096-38.912 34.816-69.632 73.728-73.728 112.64-10.24 225.28-14.336 329.728-14.336 104.448 0 210.944 4.096 315.392 14.336 38.912 4.096 69.632 34.816 73.728 73.728 8.192 75.776 12.288 151.552 12.288 223.232s-4.096 145.408-12.288 217.088c-4.096 38.912-34.816 69.632-73.728 71.68-96.256 10.24-202.752 14.336-311.296 14.336zM192.512 378.88c-20.48 2.048-34.816 16.384-36.864 36.864-8.192 71.68-12.288 143.36-12.288 217.088 0 71.68 4.096 143.36 12.288 215.04 2.048 18.432 18.432 34.816 36.864 36.864 217.088 16.384 442.368 16.384 638.976-2.048 18.432-2.048 34.816-16.384 36.864-36.864 8.192-71.68 12.288-143.36 12.288-212.992 0-71.68-4.096-145.408-12.288-219.136-2.048-18.432-18.432-34.816-36.864-36.864-104.448-8.192-208.896-14.336-311.296-14.336-106.496 2.048-215.04 6.144-327.68 16.384z" fill="#13173C" p-id="1981"></path><path d="M798.72 528.384m-40.96 0a40.96 40.96 0 1 0 81.92 0 40.96 40.96 0 1 0-81.92 0Z" fill="#266BA4" p-id="1982"></path><path d="M798.72 671.744m-40.96 0a40.96 40.96 0 1 0 81.92 0 40.96 40.96 0 1 0-81.92 0Z" fill="#266BA4" p-id="1983"></path><path d="M264.192 434.176c65.536-4.096 129.024-8.192 190.464-8.192 59.392 0 120.832 2.048 180.224 8.192 38.912 4.096 71.68 34.816 75.776 73.728 4.096 43.008 6.144 83.968 6.144 124.928s-2.048 81.92-6.144 120.832c-4.096 38.912-34.816 71.68-75.776 73.728-57.344 4.096-116.736 6.144-178.176 6.144-63.488 0-129.024-2.048-192.512-8.192-38.912-4.096-71.68-34.816-75.776-73.728a1234.18624 1234.18624 0 0 1 0-245.76c4.096-36.864 36.864-69.632 75.776-71.68z" fill="#0A3F67" p-id="1984"></path><path d="M522.24 241.664c38.912 0 71.68 32.768 71.68 71.68v10.24h-143.36v-10.24c0-38.912 32.768-71.68 71.68-71.68z" fill="#B3D7FF" p-id="1985"></path><path d="M634.88 364.544H409.6v-51.2c0-61.44 51.2-112.64 112.64-112.64s112.64 51.2 112.64 112.64v51.2z m-184.32-40.96h143.36v-10.24c0-38.912-32.768-71.68-71.68-71.68S450.56 274.432 450.56 313.344v10.24z" fill="#13173C" p-id="1986"></path><path d="M301.056 92.16c8.192-8.192 20.48-8.192 28.672 0l131.072 131.072c8.192 8.192 8.192 20.48 0 28.672-8.192 8.192-20.48 8.192-28.672 0l-131.072-131.072c-8.192-8.192-8.192-20.48 0-28.672z" fill="#13173C" p-id="1987"></path><path d="M747.52 92.16c-8.192-8.192-20.48-8.192-28.672 0l-131.072 131.072c-8.192 8.192-8.192 20.48 0 28.672 8.192 8.192 20.48 8.192 28.672 0l131.072-131.072c8.192-8.192 8.192-20.48 0-28.672z" fill="#13173C" p-id="1988"></path><path d="M571.392 657.408l-149.504 112.64c-8.192 6.144-22.528 4.096-28.672-4.096-2.048-4.096-4.096-8.192-4.096-12.288v-225.28c0-12.288 8.192-20.48 20.48-20.48 4.096 0 8.192 2.048 12.288 4.096l149.504 112.64c8.192 6.144 10.24 20.48 4.096 28.672 0 2.048-2.048 2.048-4.096 4.096z" fill="#A9FF4F" p-id="1989"></path></svg>